<svg t="1734108232437" class="icon" viewBox="0 0 1024 1024" version="1.1" xmlns="http://www.w3.org/2000/svg" p-id="1544" width="200" height="200"><path d="M0 511.978668C0 153.5936 153.5936 0 511.978668 0s511.978668 153.5936 511.978667 511.978668-153.5936 511.978668-511.978667 511.978667S0 870.363735 0 511.978668" fill="#FFFFFF" p-id="1545"></path><path d="M0.042665 512.021332c0-358.385067 153.5936-511.978668 511.978667-511.978667s511.978668 153.5936 511.978668 511.978667-153.5936 511.978668-511.978668 511.978668-511.978668-153.5936-511.978667-511.978668" fill="#F26B5C" p-id="1546"></path><path d="M341.319112 341.319112m63.997333 0l213.324445 0q63.997333 0 63.997333 63.997333l0 213.324445q0 63.997333-63.997333 63.997333l-213.324445 0q-63.997333 0-63.997333-63.997333l0-213.324445q0-63.997333 63.997333-63.997333Z" fill="#FFFFFF" p-id="1547"></path></svg>