<svg t="1736527145366" class="icon" viewBox="0 0 1024 1024" version="1.1" xmlns="http://www.w3.org/2000/svg" p-id="7028" width="200" height="200"><path d="M515.424 312.32h398.848c-73.44-147.264-225.536-248.448-401.28-248.448A447.296 447.296 0 0 0 163.584 231.424l151.648 262.688c8.544-102.336 95.712-181.792 200.192-181.792z m-1.216 32.864a165.632 165.632 0 1 0 129.952 268.256l1.44-2.464 0.352 0.192a165.632 165.632 0 0 0-111.968-264.768l-6.4-0.64a168.8 168.8 0 0 0-13.408-0.576z m415.36 1.216h-302.112a199.584 199.584 0 0 1 86.496 164.416c0 45.536-18.272 81.6-41.12 121.184l-188.928 327.232c9.632 0.608 19.328 0.96 29.088 0.96 247.52 0 448.192-200.672 448.192-448.192 0-58.496-11.232-114.4-31.616-165.632z m-415.36 364.16c-83.584 0-144.928-54.816-185.024-124.64l-0.224 0.128L141.472 261.312a446.112 446.112 0 0 0-76.64 250.72c0 225.024 165.824 411.296 381.952 443.296l152.288-263.744a198.72 198.72 0 0 1-84.832 18.976z" p-id="7029"></path></svg>